<svg width="32" height="33" xmlns="http://www.w3.org/2000/svg" xmlns:xlink="http://www.w3.org/1999/xlink" xmlns:svgjs="http://svgjs.com/svgjs" viewBox="0 0.08 32 32.839" fill="#fff" stroke-miterlimit="100" stroke="#fff"><svg xmlns="http://www.w3.org/2000/svg" width="32" height="33" viewBox="0.65 0.748 30.698 31.503"><path paint-order="stroke fill markers" fill-rule="evenodd" d="M2.707 18.857l-1.56-1.56a1.68 1.68 0 0 1 0-2.385l13.66-13.668a1.68 1.68 0 0 1 2.385 0l13.661 13.661a1.68 1.68 0 0 1 0 2.384l-1.56 1.561a1.69 1.69 0 0 1-2.412-.028l-8.065-8.466v20.208c0 .935-.752 1.687-1.688 1.687h-2.25a1.683 1.683 0 0 1-1.687-1.687V10.356L5.119 18.83a1.677 1.677 0 0 1-2.412.028s0 0 0 0z"/></svg></svg>