<svg width="108" height="108" xmlns="http://www.w3.org/2000/svg" xmlns:xlink="http://www.w3.org/1999/xlink" xmlns:svgjs="http://svgjs.com/svgjs"><svg xmlns="http://www.w3.org/2000/svg" width="108" height="108" viewBox="1 0.751 107 107"><path paint-order="stroke fill markers" fill-rule="evenodd" d="M54.5.751C24.944.751 1 24.697 1 54.251c0 29.555 23.945 53.5 53.5 53.5 29.554 0 53.5-23.945 53.5-53.5 0-29.554-23.946-53.5-53.5-53.5zm0 20.71c10.484 0 18.984 8.5 18.984 18.984 0 10.484-8.5 18.984-18.985 18.984-10.483 0-18.983-8.5-18.983-18.984 0-10.484 8.5-18.984 18.983-18.984zm0 74.21c-12.663 0-24.01-5.738-31.604-14.712 4.055-7.637 11.994-12.901 21.249-12.901.517 0 1.036.086 1.531.237 2.805.906 5.739 1.489 8.823 1.489 3.085 0 6.04-.583 8.824-1.489a5.284 5.284 0 0 1 1.532-.237c9.254 0 17.193 5.264 21.248 12.9-7.593 8.975-18.94 14.713-31.604 14.713z"/></svg></svg>